<mxfile host="app.diagrams.net" agent="Mozilla/5.0 (Windows NT 10.0; Win64; x64; rv:133.0) Gecko/20100101 Firefox/133.0" version="26.0.4">
  <diagram name="PÃ¡gina-1" id="lmha-517nniCLPN6JwKE">
    <mxGraphModel dx="1247" dy="614" grid="1" gridSize="10" guides="1" tooltips="1" connect="1" arrows="1" fold="1" page="1" pageScale="1" pageWidth="827" pageHeight="1169" math="0" shadow="0">
      <root>
        <mxCell id="0" />
        <mxCell id="1" parent="0" />
        <mxCell id="qFhB5HEPBamgJlPAgSz2-9" style="edgeStyle=orthogonalEdgeStyle;rounded=0;orthogonalLoop=1;jettySize=auto;html=1;exitX=0.5;exitY=0.5;exitDx=0;exitDy=0;exitPerimeter=0;entryX=0;entryY=0.5;entryDx=0;entryDy=0;endArrow=none;endFill=0;" parent="1" source="qFhB5HEPBamgJlPAgSz2-1" target="GnrFOolTsA4xDCtrEcNS-4" edge="1">
          <mxGeometry relative="1" as="geometry">
            <Array as="points">
              <mxPoint x="450" y="350" />
              <mxPoint x="450" y="280" />
            </Array>
          </mxGeometry>
        </mxCell>
        <mxCell id="qFhB5HEPBamgJlPAgSz2-10" style="edgeStyle=orthogonalEdgeStyle;rounded=0;orthogonalLoop=1;jettySize=auto;html=1;exitX=0.5;exitY=0.5;exitDx=0;exitDy=0;exitPerimeter=0;entryX=0;entryY=0.5;entryDx=0;entryDy=0;endArrow=none;endFill=0;" parent="1" source="qFhB5HEPBamgJlPAgSz2-1" target="qFhB5HEPBamgJlPAgSz2-5" edge="1">
          <mxGeometry relative="1" as="geometry">
            <Array as="points">
              <mxPoint x="450" y="350" />
              <mxPoint x="450" y="420" />
            </Array>
          </mxGeometry>
        </mxCell>
        <mxCell id="qFhB5HEPBamgJlPAgSz2-11" style="edgeStyle=orthogonalEdgeStyle;rounded=0;orthogonalLoop=1;jettySize=auto;html=1;exitX=0.5;exitY=0.5;exitDx=0;exitDy=0;exitPerimeter=0;entryX=1;entryY=0.5;entryDx=0;entryDy=0;endArrow=none;endFill=0;" parent="1" source="qFhB5HEPBamgJlPAgSz2-1" target="qFhB5HEPBamgJlPAgSz2-6" edge="1">
          <mxGeometry relative="1" as="geometry">
            <Array as="points">
              <mxPoint x="340" y="350" />
              <mxPoint x="340" y="350" />
            </Array>
          </mxGeometry>
        </mxCell>
        <mxCell id="qFhB5HEPBamgJlPAgSz2-12" style="edgeStyle=orthogonalEdgeStyle;rounded=0;orthogonalLoop=1;jettySize=auto;html=1;exitX=0.5;exitY=0.5;exitDx=0;exitDy=0;exitPerimeter=0;entryX=1;entryY=0.5;entryDx=0;entryDy=0;endArrow=none;endFill=0;" parent="1" source="qFhB5HEPBamgJlPAgSz2-1" target="qFhB5HEPBamgJlPAgSz2-7" edge="1">
          <mxGeometry relative="1" as="geometry">
            <Array as="points">
              <mxPoint x="360" y="350" />
              <mxPoint x="360" y="420" />
            </Array>
          </mxGeometry>
        </mxCell>
        <mxCell id="GnrFOolTsA4xDCtrEcNS-3" style="edgeStyle=orthogonalEdgeStyle;rounded=0;orthogonalLoop=1;jettySize=auto;html=1;exitX=0.5;exitY=0.5;exitDx=0;exitDy=0;exitPerimeter=0;entryX=0;entryY=0.5;entryDx=0;entryDy=0;endArrow=none;endFill=0;" parent="1" source="qFhB5HEPBamgJlPAgSz2-1" target="qFhB5HEPBamgJlPAgSz2-4" edge="1">
          <mxGeometry relative="1" as="geometry">
            <Array as="points" />
          </mxGeometry>
        </mxCell>
        <mxCell id="GnrFOolTsA4xDCtrEcNS-5" style="edgeStyle=orthogonalEdgeStyle;rounded=0;orthogonalLoop=1;jettySize=auto;html=1;exitX=0.5;exitY=0.5;exitDx=0;exitDy=0;exitPerimeter=0;entryX=0;entryY=0.5;entryDx=0;entryDy=0;strokeColor=default;endArrow=none;endFill=0;" parent="1" source="qFhB5HEPBamgJlPAgSz2-1" target="qFhB5HEPBamgJlPAgSz2-4" edge="1">
          <mxGeometry relative="1" as="geometry">
            <mxPoint x="480" y="430" as="targetPoint" />
          </mxGeometry>
        </mxCell>
        <mxCell id="in6-VWhSKFkth-PQ7jhl-5" style="edgeStyle=orthogonalEdgeStyle;rounded=0;orthogonalLoop=1;jettySize=auto;html=1;exitX=0.5;exitY=0.5;exitDx=0;exitDy=0;exitPerimeter=0;entryX=1;entryY=0.5;entryDx=0;entryDy=0;endArrow=none;endFill=0;" parent="1" source="qFhB5HEPBamgJlPAgSz2-1" target="in6-VWhSKFkth-PQ7jhl-4" edge="1">
          <mxGeometry relative="1" as="geometry">
            <mxPoint x="404.7931034482758" y="270" as="targetPoint" />
            <Array as="points">
              <mxPoint x="360" y="350" />
              <mxPoint x="360" y="280" />
            </Array>
          </mxGeometry>
        </mxCell>
        <mxCell id="qFhB5HEPBamgJlPAgSz2-1" value="Passageiro" style="shape=umlActor;verticalLabelPosition=bottom;verticalAlign=top;html=1;outlineConnect=0;" parent="1" vertex="1">
          <mxGeometry x="390" y="320" width="30" height="60" as="geometry" />
        </mxCell>
        <mxCell id="qFhB5HEPBamgJlPAgSz2-34" style="edgeStyle=orthogonalEdgeStyle;rounded=0;orthogonalLoop=1;jettySize=auto;html=1;exitX=0.5;exitY=0.5;exitDx=0;exitDy=0;exitPerimeter=0;entryX=0;entryY=0.5;entryDx=0;entryDy=0;endArrow=none;endFill=0;" parent="1" source="qFhB5HEPBamgJlPAgSz2-3" target="qFhB5HEPBamgJlPAgSz2-16" edge="1">
          <mxGeometry relative="1" as="geometry">
            <Array as="points">
              <mxPoint x="810" y="350" />
              <mxPoint x="810" y="390" />
            </Array>
            <mxPoint x="755" y="354.99" as="sourcePoint" />
            <mxPoint x="830" y="370" as="targetPoint" />
          </mxGeometry>
        </mxCell>
        <mxCell id="qFhB5HEPBamgJlPAgSz2-35" style="edgeStyle=orthogonalEdgeStyle;rounded=0;orthogonalLoop=1;jettySize=auto;html=1;exitX=0.5;exitY=0.5;exitDx=0;exitDy=0;exitPerimeter=0;entryX=0;entryY=0.5;entryDx=0;entryDy=0;endArrow=none;endFill=0;" parent="1" source="qFhB5HEPBamgJlPAgSz2-3" target="qFhB5HEPBamgJlPAgSz2-17" edge="1">
          <mxGeometry relative="1" as="geometry">
            <Array as="points">
              <mxPoint x="810" y="350" />
              <mxPoint x="810" y="320" />
            </Array>
          </mxGeometry>
        </mxCell>
        <mxCell id="qFhB5HEPBamgJlPAgSz2-36" style="edgeStyle=orthogonalEdgeStyle;rounded=0;orthogonalLoop=1;jettySize=auto;html=1;exitX=0.5;exitY=0.5;exitDx=0;exitDy=0;exitPerimeter=0;entryX=0;entryY=0.5;entryDx=0;entryDy=0;endArrow=none;endFill=0;" parent="1" source="qFhB5HEPBamgJlPAgSz2-3" target="qFhB5HEPBamgJlPAgSz2-32" edge="1">
          <mxGeometry relative="1" as="geometry">
            <Array as="points">
              <mxPoint x="810" y="350" />
              <mxPoint x="810" y="440" />
            </Array>
          </mxGeometry>
        </mxCell>
        <mxCell id="qFhB5HEPBamgJlPAgSz2-37" style="edgeStyle=orthogonalEdgeStyle;rounded=0;orthogonalLoop=1;jettySize=auto;html=1;exitX=0.5;exitY=0.5;exitDx=0;exitDy=0;exitPerimeter=0;entryX=1;entryY=0.5;entryDx=0;entryDy=0;endArrow=none;endFill=0;" parent="1" source="qFhB5HEPBamgJlPAgSz2-3" target="qFhB5HEPBamgJlPAgSz2-18" edge="1">
          <mxGeometry relative="1" as="geometry">
            <Array as="points">
              <mxPoint x="710" y="350" />
              <mxPoint x="710" y="265" />
            </Array>
          </mxGeometry>
        </mxCell>
        <mxCell id="qFhB5HEPBamgJlPAgSz2-38" style="edgeStyle=orthogonalEdgeStyle;rounded=0;orthogonalLoop=1;jettySize=auto;html=1;exitX=0.5;exitY=0.5;exitDx=0;exitDy=0;exitPerimeter=0;entryX=1;entryY=0.5;entryDx=0;entryDy=0;endArrow=none;endFill=0;" parent="1" source="qFhB5HEPBamgJlPAgSz2-3" target="qFhB5HEPBamgJlPAgSz2-15" edge="1">
          <mxGeometry relative="1" as="geometry" />
        </mxCell>
        <mxCell id="qFhB5HEPBamgJlPAgSz2-39" style="edgeStyle=orthogonalEdgeStyle;rounded=0;orthogonalLoop=1;jettySize=auto;html=1;exitX=0.5;exitY=0.5;exitDx=0;exitDy=0;exitPerimeter=0;entryX=1;entryY=0.5;entryDx=0;entryDy=0;endArrow=none;endFill=0;" parent="1" source="qFhB5HEPBamgJlPAgSz2-3" target="qFhB5HEPBamgJlPAgSz2-21" edge="1">
          <mxGeometry relative="1" as="geometry">
            <Array as="points">
              <mxPoint x="710" y="350" />
              <mxPoint x="710" y="390" />
            </Array>
          </mxGeometry>
        </mxCell>
        <mxCell id="GnrFOolTsA4xDCtrEcNS-15" value="" style="edgeStyle=orthogonalEdgeStyle;rounded=0;orthogonalLoop=1;jettySize=auto;html=1;endArrow=none;endFill=0;entryX=1;entryY=0.5;entryDx=0;entryDy=0;" parent="1" source="qFhB5HEPBamgJlPAgSz2-3" target="qFhB5HEPBamgJlPAgSz2-13" edge="1">
          <mxGeometry relative="1" as="geometry">
            <Array as="points">
              <mxPoint x="710" y="350" />
              <mxPoint x="710" y="440" />
            </Array>
            <mxPoint x="710" y="440" as="targetPoint" />
          </mxGeometry>
        </mxCell>
        <mxCell id="GnrFOolTsA4xDCtrEcNS-17" style="edgeStyle=orthogonalEdgeStyle;rounded=0;orthogonalLoop=1;jettySize=auto;html=1;exitX=0.5;exitY=0.5;exitDx=0;exitDy=0;exitPerimeter=0;entryX=0.5;entryY=1;entryDx=0;entryDy=0;endArrow=none;endFill=0;" parent="1" source="qFhB5HEPBamgJlPAgSz2-3" target="GnrFOolTsA4xDCtrEcNS-11" edge="1">
          <mxGeometry relative="1" as="geometry">
            <Array as="points">
              <mxPoint x="710" y="350" />
              <mxPoint x="710" y="240" />
            </Array>
          </mxGeometry>
        </mxCell>
        <mxCell id="in6-VWhSKFkth-PQ7jhl-1" style="edgeStyle=orthogonalEdgeStyle;rounded=0;orthogonalLoop=1;jettySize=auto;html=1;exitX=0.5;exitY=0.5;exitDx=0;exitDy=0;exitPerimeter=0;entryX=1;entryY=0.5;entryDx=0;entryDy=0;endArrow=none;endFill=0;" parent="1" source="qFhB5HEPBamgJlPAgSz2-3" target="qFhB5HEPBamgJlPAgSz2-4" edge="1">
          <mxGeometry relative="1" as="geometry" />
        </mxCell>
        <mxCell id="qFhB5HEPBamgJlPAgSz2-3" value="Administrador" style="shape=umlActor;verticalLabelPosition=bottom;verticalAlign=top;html=1;outlineConnect=0;" parent="1" vertex="1">
          <mxGeometry x="740" y="320" width="30" height="60" as="geometry" />
        </mxCell>
        <mxCell id="qFhB5HEPBamgJlPAgSz2-4" value="&lt;div&gt;Autenticar no&lt;/div&gt;&lt;div&gt;sistema&lt;br&gt;&lt;/div&gt;" style="ellipse;whiteSpace=wrap;html=1;" parent="1" vertex="1">
          <mxGeometry x="480" y="330" width="90" height="40" as="geometry" />
        </mxCell>
        <mxCell id="qFhB5HEPBamgJlPAgSz2-6" value="Comprar passagens" style="ellipse;whiteSpace=wrap;html=1;" parent="1" vertex="1">
          <mxGeometry x="230" y="330" width="90" height="40" as="geometry" />
        </mxCell>
        <mxCell id="qFhB5HEPBamgJlPAgSz2-7" value="&lt;div&gt;Realizar&amp;nbsp;&lt;/div&gt;&lt;div&gt;check-in&lt;/div&gt;" style="ellipse;whiteSpace=wrap;html=1;" parent="1" vertex="1">
          <mxGeometry x="230" y="400" width="90" height="40" as="geometry" />
        </mxCell>
        <mxCell id="qFhB5HEPBamgJlPAgSz2-13" value="Manter voos" style="ellipse;whiteSpace=wrap;html=1;" parent="1" vertex="1">
          <mxGeometry x="590" y="420" width="90" height="40" as="geometry" />
        </mxCell>
        <mxCell id="qFhB5HEPBamgJlPAgSz2-15" value="Manter aeronaves" style="ellipse;whiteSpace=wrap;html=1;" parent="1" vertex="1">
          <mxGeometry x="590" y="300" width="90" height="40" as="geometry" />
        </mxCell>
        <mxCell id="qFhB5HEPBamgJlPAgSz2-16" value="Manter aeroportos" style="ellipse;whiteSpace=wrap;html=1;" parent="1" vertex="1">
          <mxGeometry x="860" y="370" width="100" height="40" as="geometry" />
        </mxCell>
        <mxCell id="qFhB5HEPBamgJlPAgSz2-17" value="Manter portÃµes de embarque" style="ellipse;whiteSpace=wrap;html=1;" parent="1" vertex="1">
          <mxGeometry x="870" y="300" width="90" height="40" as="geometry" />
        </mxCell>
        <mxCell id="qFhB5HEPBamgJlPAgSz2-18" value="Manter companhias aÃ©reas" style="ellipse;whiteSpace=wrap;html=1;" parent="1" vertex="1">
          <mxGeometry x="580" y="240" width="100" height="50" as="geometry" />
        </mxCell>
        <mxCell id="qFhB5HEPBamgJlPAgSz2-21" value="Manter manutenÃ§Ãµes" style="ellipse;whiteSpace=wrap;html=1;" parent="1" vertex="1">
          <mxGeometry x="585" y="370" width="100" height="40" as="geometry" />
        </mxCell>
        <mxCell id="qFhB5HEPBamgJlPAgSz2-32" value="Ver passagens" style="ellipse;whiteSpace=wrap;html=1;" parent="1" vertex="1">
          <mxGeometry x="865" y="420" width="90" height="40" as="geometry" />
        </mxCell>
        <mxCell id="GnrFOolTsA4xDCtrEcNS-4" value="Criar conta de passageiro" style="ellipse;whiteSpace=wrap;html=1;" parent="1" vertex="1">
          <mxGeometry x="480" y="260" width="90" height="40" as="geometry" />
        </mxCell>
        <mxCell id="GnrFOolTsA4xDCtrEcNS-7" style="edgeStyle=orthogonalEdgeStyle;rounded=0;orthogonalLoop=1;jettySize=auto;html=1;exitX=0.5;exitY=0.5;exitDx=0;exitDy=0;exitPerimeter=0;entryX=0.5;entryY=0;entryDx=0;entryDy=0;endArrow=none;endFill=0;" parent="1" source="qFhB5HEPBamgJlPAgSz2-3" target="GnrFOolTsA4xDCtrEcNS-8" edge="1">
          <mxGeometry relative="1" as="geometry">
            <mxPoint x="760" y="400" as="sourcePoint" />
            <Array as="points">
              <mxPoint x="810" y="350" />
              <mxPoint x="810" y="265" />
              <mxPoint x="915" y="265" />
            </Array>
          </mxGeometry>
        </mxCell>
        <mxCell id="GnrFOolTsA4xDCtrEcNS-8" value="Ver passageiros" style="ellipse;whiteSpace=wrap;html=1;" parent="1" vertex="1">
          <mxGeometry x="870" y="245" width="90" height="40" as="geometry" />
        </mxCell>
        <mxCell id="GnrFOolTsA4xDCtrEcNS-11" value="Manter administradores" style="ellipse;whiteSpace=wrap;html=1;" parent="1" vertex="1">
          <mxGeometry x="660" y="180" width="100" height="50" as="geometry" />
        </mxCell>
        <mxCell id="in6-VWhSKFkth-PQ7jhl-2" value="&lt;div&gt;Liberar&lt;/div&gt;&lt;div&gt;check-in&lt;/div&gt;" style="ellipse;whiteSpace=wrap;html=1;" parent="1" vertex="1">
          <mxGeometry x="765" y="185" width="90" height="40" as="geometry" />
        </mxCell>
        <mxCell id="in6-VWhSKFkth-PQ7jhl-3" style="edgeStyle=orthogonalEdgeStyle;rounded=0;orthogonalLoop=1;jettySize=auto;html=1;exitX=0.5;exitY=0.5;exitDx=0;exitDy=0;exitPerimeter=0;entryX=0.5;entryY=1;entryDx=0;entryDy=0;endArrow=none;endFill=0;" parent="1" source="qFhB5HEPBamgJlPAgSz2-3" target="in6-VWhSKFkth-PQ7jhl-2" edge="1">
          <mxGeometry relative="1" as="geometry">
            <mxPoint x="810" y="230" as="targetPoint" />
            <Array as="points">
              <mxPoint x="810" y="350" />
              <mxPoint x="810" y="225" />
            </Array>
          </mxGeometry>
        </mxCell>
        <mxCell id="in6-VWhSKFkth-PQ7jhl-4" value="Ver passagens compradas" style="ellipse;whiteSpace=wrap;html=1;" parent="1" vertex="1">
          <mxGeometry x="220" y="257.5" width="110" height="45" as="geometry" />
        </mxCell>
        <mxCell id="in6-VWhSKFkth-PQ7jhl-7" style="edgeStyle=orthogonalEdgeStyle;rounded=0;orthogonalLoop=1;jettySize=auto;html=1;exitX=1;exitY=0.5;exitDx=0;exitDy=0;entryX=0;entryY=1;entryDx=0;entryDy=0;dashed=1;endArrow=none;endFill=0;" parent="1" source="in6-VWhSKFkth-PQ7jhl-8" target="qFhB5HEPBamgJlPAgSz2-6" edge="1">
          <mxGeometry relative="1" as="geometry">
            <Array as="points">
              <mxPoint x="220" y="380" />
              <mxPoint x="243" y="380" />
            </Array>
          </mxGeometry>
        </mxCell>
        <mxCell id="in6-VWhSKFkth-PQ7jhl-6" value="Validar pagamento" style="ellipse;whiteSpace=wrap;html=1;" parent="1" vertex="1">
          <mxGeometry x="50" y="360" width="90" height="40" as="geometry" />
        </mxCell>
        <mxCell id="qFhB5HEPBamgJlPAgSz2-5" value="Ver voos" style="ellipse;whiteSpace=wrap;html=1;" parent="1" vertex="1">
          <mxGeometry x="480" y="400" width="90" height="40" as="geometry" />
        </mxCell>
        <mxCell id="PQhBM_CTheQZLaMorCEp-3" value="" style="edgeStyle=orthogonalEdgeStyle;rounded=0;orthogonalLoop=1;jettySize=auto;html=1;exitX=1;exitY=0.5;exitDx=0;exitDy=0;entryX=0;entryY=0.5;entryDx=0;entryDy=0;dashed=1;endArrow=none;endFill=0;startArrow=open;startFill=0;" parent="1" source="in6-VWhSKFkth-PQ7jhl-6" target="in6-VWhSKFkth-PQ7jhl-8" edge="1">
          <mxGeometry relative="1" as="geometry">
            <mxPoint x="130" y="350" as="sourcePoint" />
            <mxPoint x="230" y="350" as="targetPoint" />
          </mxGeometry>
        </mxCell>
        <mxCell id="in6-VWhSKFkth-PQ7jhl-8" value="&lt;font style=&quot;font-size: 10px;&quot;&gt;&amp;lt;&amp;lt;include&amp;gt;&amp;gt;&lt;/font&gt;" style="text;html=1;align=center;verticalAlign=middle;whiteSpace=wrap;rounded=0;rotation=0;" parent="1" vertex="1">
          <mxGeometry x="160" y="370" width="60" height="20" as="geometry" />
        </mxCell>
        <mxCell id="EaELzU0Thcxan9oBgpvw-2" value="Reservar assento" style="ellipse;whiteSpace=wrap;html=1;" vertex="1" parent="1">
          <mxGeometry x="50" y="300" width="90" height="40" as="geometry" />
        </mxCell>
        <mxCell id="EaELzU0Thcxan9oBgpvw-4" style="edgeStyle=orthogonalEdgeStyle;rounded=0;orthogonalLoop=1;jettySize=auto;html=1;exitX=1;exitY=0.5;exitDx=0;exitDy=0;entryX=0;entryY=0;entryDx=0;entryDy=0;dashed=1;endArrow=open;endFill=0;startArrow=none;startFill=0;" edge="1" parent="1" source="EaELzU0Thcxan9oBgpvw-5" target="qFhB5HEPBamgJlPAgSz2-6">
          <mxGeometry relative="1" as="geometry">
            <mxPoint x="207" y="320" as="sourcePoint" />
            <mxPoint x="230" y="304" as="targetPoint" />
            <Array as="points">
              <mxPoint x="243" y="320" />
              <mxPoint x="243" y="336" />
            </Array>
          </mxGeometry>
        </mxCell>
        <mxCell id="EaELzU0Thcxan9oBgpvw-6" value="" style="edgeStyle=orthogonalEdgeStyle;rounded=0;orthogonalLoop=1;jettySize=auto;html=1;exitX=1;exitY=0.5;exitDx=0;exitDy=0;entryX=0;entryY=0.5;entryDx=0;entryDy=0;dashed=1;endArrow=none;endFill=0;startArrow=none;startFill=0;" edge="1" parent="1" source="EaELzU0Thcxan9oBgpvw-2" target="EaELzU0Thcxan9oBgpvw-5">
          <mxGeometry relative="1" as="geometry">
            <mxPoint x="140" y="320" as="sourcePoint" />
            <mxPoint x="243" y="336" as="targetPoint" />
            <Array as="points" />
          </mxGeometry>
        </mxCell>
        <mxCell id="EaELzU0Thcxan9oBgpvw-5" value="&lt;font style=&quot;font-size: 10px;&quot;&gt;&amp;lt;&amp;lt;extends&amp;gt;&amp;gt;&lt;/font&gt;" style="text;html=1;align=center;verticalAlign=middle;whiteSpace=wrap;rounded=0;rotation=0;" vertex="1" parent="1">
          <mxGeometry x="160" y="310" width="60" height="20" as="geometry" />
        </mxCell>
      </root>
    </mxGraphModel>
  </diagram>
</mxfile>
